<?xml version="1.0" standalone="no"?>
<!DOCTYPE svg PUBLIC "-//W3C//DTD SVG 20010904//EN"
 "http://www.w3.org/TR/2001/REC-SVG-20010904/DTD/svg10.dtd">
<svg version="1.0" xmlns="http://www.w3.org/2000/svg"
 width="184.000000pt" height="273.000000pt" viewBox="0 0 184.000000 273.000000"
 preserveAspectRatio="xMidYMid meet">

<g transform="translate(0.000000,273.000000) scale(0.100000,-0.100000)"
fill="#000000" stroke="none">
<path d="M0 1365 l0 -1365 920 0 920 0 0 1365 0 1365 -920 0 -920 0 0 -1365z
m1011 301 c37 -8 86 -24 108 -36 83 -42 166 -136 196 -220 l14 -40 -122 0
-122 1 -20 32 c-11 18 -40 42 -65 55 -82 41 -164 23 -222 -49 l-31 -39 -125 0
-124 0 7 28 c11 46 68 132 113 173 105 92 245 126 393 95z m-276 -356 l-7 -50
187 0 188 0 -5 50 -5 51 121 -3 121 -3 11 -65 c7 -36 12 -93 13 -127 l1 -63
-316 0 -317 0 6 -45 c16 -116 91 -185 199 -185 69 0 111 26 140 85 12 25 27
45 32 45 27 0 227 -38 233 -44 13 -12 -43 -110 -89 -158 -29 -30 -74 -61 -115
-81 -60 -28 -80 -32 -174 -35 -59 -2 -130 1 -159 7 -159 34 -270 146 -316 319
-15 59 -21 234 -9 287 16 70 5 65 142 65 l125 0 -7 -50z"/>
</g>
</svg>
